PathFileType	4	(X/Y/Z)	8_coords_data.trc
DataRate	CameraRate	NumFrames	NumMarkers	Units	OrigDataRate	OrigDataStartFrame	OrigNumFrames
30.0	30.0	9	21	m	30.0	30	59
Frame#	Time	THUMB_TIP	THUMB_IP	THUMB_MCP	THUMB_CMC	INDEX_TIP	INDEX_DIP	INDEX_PIP	INDEX_MCP	MIDDLE_TIP	MIDDLE_DIP	MIDDLE_PIP	MIDDLE_MCP	RING_TIP	RING_DIP	RING_PIP	RING_MCP	PINKY_TIP	PINKY_DIP	PINKY_PIP	PINKY_MCP	WRIST
X1	Y1	Z1	X2	Y2	Z2	X3	Y3	Z3	X4	Y4	Z4	X5	Y5	Z5	X6	Y6	Z6	X7	Y7	Z7	X8	Y8	Z8	X9	Y9	Z9	X10	Y10	Z10	X11	Y11	Z11	X12	Y12	Z12	X13	Y13	Z13	X14	Y14	Z14	X15	Y15	Z15	X16	Y16	Z16	X17	Y17	Z17	X18	Y18	Z18	X19	Y19	Z19	X20	Y20	Z20	X21	Y21	Z21
28	0.9666666666666625	0.5095150471965926	-0.019365310605561126	-0.1670427139153297	0.49921262960427226	-0.01958809370232828	-0.14650468675970335	0.48038353348200935	-0.017451841572491467	-0.12181214606304044	0.47354755530017534	-0.024451597463888364	-0.07829016518258942	0.5701772938990608	0.03931108838572661	-0.16395822624782255	0.5558812934603529	0.0346488726662334	-0.15386426191058722	0.5366013534265153	0.03091891150715609	-0.13816772933031968	0.5059214290222919	0.01872502637783402	-0.11126628888553983	0.5835866409046907	0.0008705896124654444	-0.15215620627929594	0.5707198008297366	0.004328663859753834	-0.13988892667109437	0.5552453739881386	0.019731522040105143	-0.12058339316901218	0.5193502826833104	0.017207920667965837	-0.09410091259538417	0.5827598818609866	-0.00976588140637391	-0.1330993663444882	0.5765297854428518	-0.0003561070342210648	-0.11904084420004074	0.5652898001633584	0.012689641857826173	-0.10105053720537208	0.5304964959663562	0.007044249980455164	-0.08124456922585176	0.6036783497162342	0.010549383774570598	-0.07697005364233062	0.5872627433459119	0.00639062845570193	-0.07447353172325744	0.5669004990743465	0.002099055778105985	-0.07168544435410806	0.5325514458274455	-0.008728322929135057	-0.06973766038981477	0.4622830810018609	-0.023011742144276925	-0.051989820119430985
29	0.9999999999999956	0.49934474728655653	-0.01180747464129761	-0.17081162493271393	0.49243900259866324	-0.014409925719879313	-0.14905069805242632	0.476895832741838	-0.014778291446232106	-0.12208601415860827	0.47270580964788567	-0.024049847397573543	-0.07865363042580714	0.5711311547556429	0.039850011904634164	-0.16304700613460224	0.5567200869712674	0.03481461172344508	-0.15330196276223024	0.5372459128140342	0.030503509876207813	-0.1379989965544488	0.5062616793444402	0.017641296636220494	-0.11176587167633353	0.5925770557140195	0.016752558618025604	-0.1482346163239868	0.5776047417988026	0.016127471466659937	-0.13806411574253052	0.5564320328667443	0.02318814608408143	-0.11932184212310971	0.5197917792174023	0.015748763028346713	-0.09486176621844553	0.5947647618278791	0.004557480830916338	-0.1291163891562127	0.5827289963762412	0.008551504288895284	-0.11630279767644879	0.5658991406722007	0.015552119927365382	-0.09933437651643562	0.5307342416423325	0.005817070790866796	-0.08191658307038913	0.6035233279341758	0.011227419566271601	-0.07620969366290796	0.5871750706854137	0.0067387718776898975	-0.0738461101852016	0.5668729165035787	0.002064584791744206	-0.07124101332278515	0.5326867016737458	-0.009325035757103861	-0.0696717108147347	0.4622830810018609	-0.023011742144276925	-0.051989820119430985
30	1.0333333333333288	0.48990421994145406	-0.0034294739052844747	-0.17239722828048787	0.48609803557895725	-0.008532550481968215	-0.15031846993561737	0.4736826230568856	-0.011800306334452393	-0.12196358845825368	0.4718698936799691	-0.023588120834115545	-0.07897927223096451	0.5719558651248742	0.04192339433183445	-0.1614109411752792	0.5574764903742276	0.03618077491906824	-0.15217135086453176	0.5378294241446967	0.030844498802882203	-0.1374225618029088	0.5066272694398767	0.016729292907488813	-0.11210808771579543	0.5962789859139859	0.02852035526659824	-0.14346902387481383	0.5807552903170381	0.02583802161577442	-0.13453482210862547	0.5570933820708357	0.02657614486616766	-0.11753544499605068	0.5201938212487593	0.014498792814016448	-0.09542870621471305	0.6000627131795626	0.015837293627852578	-0.12330974702432765	0.5858456045346594	0.01639832853405565	-0.11223910740355413	0.566034263542882	0.0182956296091753	-0.09726943821088756	0.530941928141999	0.004793991456039204	-0.08240489660027168	0.6033342517236124	0.012019876485321324	-0.07527531671115514	0.5870593242829459	0.007192429166974379	-0.07307930004691343	0.5668247375852296	0.0021206417746745254	-0.07070222351892591	0.5328070342651031	-0.009811612329416963	-0.06956177456379675	0.4622830810018609	-0.023011742144276925	-0.051989820119430985
31	1.0666666666666622	0.4819156605045324	0.005098989233601192	-0.17203399447017628	0.4806336583212527	-0.0024143222087643634	-0.1503566648013244	0.4709042754353696	-0.008670033535535415	-0.12145986247899135	0.4711095124082252	-0.023079084993510857	-0.07924343067967428	0.5725178899839616	0.04522629438163128	-0.15910201381158123	0.5580541762775246	0.03854108065246503	-0.15049336100097288	0.5383113534083759	0.031864546442183894	-0.13643438987587397	0.5070167461352597	0.016042451975364025	-0.11226943640386294	0.5975994927395019	0.03724184673114428	-0.1387583789749355	0.581900546082062	0.03313777568939397	-0.13071476817311758	0.5573245859259061	0.02954868194318594	-0.11546517347411112	0.5205709796125134	0.013517006332800507	-0.09575969908034108	0.602070754959839	0.024050774229899097	-0.1178473075164923	0.5869805878422424	0.022431927570434884	-0.10811765223708224	0.565831744951631	0.020647950775658175	-0.0950898415927746	0.5311365061165914	0.00401880208012706	-0.08266274821413316	0.6031594545076179	0.012753779115327935	-0.07429467759369321	0.5869558976768734	0.007620059747244556	-0.07227238397440908	0.5667860484629013	0.002201449494644736	-0.07012113675103948	0.5329206511945236	-0.010186958880540664	-0.06938245090131281	0.462283081001861	-0.023011742144276925	-0.051989820119430985
32	1.0999999999999952	0.4759644329607653	0.013353182912050565	-0.17017400657857862	0.4764941994378653	0.0035845017673196145	-0.14938236844753378	0.46876727089683046	-0.005615549462283931	-0.12066871955551009	0.47046150812367704	-0.022566079275243345	-0.07944131241803486	0.5728434123892723	0.049080455188482475	-0.15625087443616004	0.5584691957736174	0.041391404284642164	-0.1483603489223313	0.5387073792032179	0.03329222605730586	-0.13509823178818858	0.5074192003949104	0.01562751417350805	-0.11223682511839261	0.5978558389785533	0.043983181377131975	-0.13429264142619707	0.5821447519382502	0.038628321506520014	-0.1270478350258762	0.5573036831113796	0.032021833003320566	-0.11331156336302045	0.5209283544789203	0.012854777849940713	-0.09582993344393446	0.602656182547385	0.03008053318242493	-0.11309600429014177	0.5871727517278719	0.02689185509819869	-0.1044302266486067	0.5654820759067927	0.022523437495538257	-0.09300168828739803	0.5313282535960662	0.003504841412312887	-0.08268033863774203	0.6029890718059118	0.01348159019352424	-0.07324109998475875	0.5868557671719097	0.008063978420528528	-0.07140644354182968	0.566750457638169	0.002326239605789815	-0.06949152817912638	0.5330261663421871	-0.010458082077301811	-0.06914984603590821	0.4622830810018609	-0.023011742144276925	-0.051989820119430985
33	1.1333333333333284	0.4722577821735052	0.021283339017404757	-0.16721319414492866	0.47383201038376044	0.009378236770599235	-0.14762262636257112	0.46736530432092704	-0.0026784554957078877	-0.11966483881969708	0.46999647130036293	-0.022036254994769022	-0.079561939187869	0.5729799423131653	0.05286271309334073	-0.15319107326977618	0.5587369831670645	0.04429020160875302	-0.14600426858277382	0.5390101517763047	0.03492755507813727	-0.1335462267533656	0.507792923788917	0.015586154098059857	-0.11198164980617466	0.5976421459637095	0.04933743430344212	-0.13018661493153694	0.5820336880170313	0.04280487103754155	-0.12372893286257569	0.5571923783186052	0.03400445382775841	-0.11128419343578796	0.5212259489438567	0.0126224498912052	-0.0956197819662038	0.6026598833681024	0.03463337599543265	-0.1091345322404084	0.58701584092737	0.030193547822771893	-0.10135302455167541	0.5651483893487678	0.02397296112868358	-0.09118942077944878	0.5314855965379621	0.0033499024266471222	-0.08245863250179912	0.6027872561614729	0.01430596181023136	-0.0723027888588472	0.5867244144487147	0.008630976747500019	-0.07063555742660568	0.5666860187194512	0.002603466465703197	-0.06891979654575142	0.5331017497447189	-0.010548720601374129	-0.06890236710415548	0.462283081001861	-0.023011742144276925	-0.051989820119430985
34	1.1666666666666616	0.47076128789733684	0.028492209970755855	-0.1636398414881108	0.47267247894618436	0.014684544023487178	-0.14537250151034053	0.46671652756154014	-2.0636054240075197e-05	-0.11859369791523247	0.4696897999248745	-0.021522599477280524	-0.0796230009698652	0.5730636567845885	0.056102938180559836	-0.15028631599508135	0.558934014274444	0.04687825423669717	-0.14370920350772343	0.5392433365782022	0.036565692988692666	-0.1319644972377103	0.5080829079479212	0.015960786436602703	-0.11151696419441137	0.5973049417525478	0.053600209153479905	-0.12654696643028496	0.5819081919941865	0.045887648187875274	-0.12093835695642843	0.5571753605776346	0.0354147719464295	-0.10962396508802505	0.5214374083041817	0.012844084131651501	-0.09514947926405787	0.6025624964530182	0.03800120140054547	-0.1060038044224645	0.5868788181986193	0.03252322926056489	-0.09900280037689416	0.5650087241539951	0.024984791111573756	-0.08978049503857811	0.5316014053100742	0.003585384450799811	-0.08198708267765223	0.6025879323232451	0.015176979178561867	-0.07153539499236561	0.5865852021636853	0.00930354213706408	-0.0699812506104398	0.5666076477838234	0.003044753612559181	-0.0683884837708813	0.533154101690255	-0.010434884036554348	-0.06859602560784558	0.462283081001861	-0.023011742144276925	-0.051989820119430985
35	1.1999999999999948	0.4709561375832042	0.03425666346328399	-0.16022645846751482	0.47275958324823175	0.01906542846416659	-0.14308078954108078	0.4668189960336727	0.0022538336363177036	-0.11756805344926854	0.46958621512551835	-0.02103031835237601	-0.07961965737426768	0.5732034896691299	0.0586139481042281	-0.14779955379666593	0.5591279242049054	0.04900316940812066	-0.14167489954383006	0.5394216143204612	0.0381299617056996	-0.13047469695645406	0.5082331645896286	0.016768668170882073	-0.1108631739175184	0.5970176419937303	0.056756800664992946	-0.12353917443939944	0.5819029748263229	0.04794725891955692	-0.11885528602762918	0.5572618397720449	0.03642710095867935	-0.108390584703976	0.5215199058953588	0.013520970200942228	-0.09446322826192147	0.6025262691955474	0.04036503457002416	-0.10383971045081718	0.5869033283604382	0.034011610053354846	-0.09747121639227688	0.5650875424174182	0.02562626706737925	-0.08887252546307818	0.5316349218589453	0.004200196556223501	-0.08135145411507003	0.6024414071727476	0.015956122029978537	-0.0710796189201402	0.5864728121516618	0.009981871860069602	-0.06955899143127309	0.5665338582726884	0.0035938270177400256	-0.06799597501915317	0.5331673655388255	-0.01009854105091601	-0.06827823432109853	0.462283081001861	-0.023011742144276925	-0.051989820119430985
36	1.233333333333328	0.4720055689850243	0.03842217227503436	-0.15740902403835924	0.4735240145262407	0.022299440608306687	-0.14110712700945308	0.46728937303186824	0.004031007030832479	-0.11668964187969282	0.46967294856785435	-0.02057856709625483	-0.07956044273740534	0.5731262195143337	0.06082009098081925	-0.1458759090686927	0.5590663460775224	0.051030516837841156	-0.14000358439783375	0.539334175540934	0.0398807870829867	-0.12912540415899262	0.5081538248844913	0.01801600069581577	-0.11006358516959236	0.5970260493570811	0.05805868587805635	-0.12202486777447429	0.5819688341217462	0.048979110636866	-0.11768417856694527	0.5572405886428999	0.03756407929516847	-0.10731014921447143	0.5214090268340253	0.014656545680859279	-0.09361737728742547	0.6024681862924084	0.041515422227291876	-0.10288945051679567	0.5868978504384169	0.034867607639603004	-0.09669500117874914	0.5650780552415052	0.026514436657914642	-0.08807519543177843	0.531555484987719	0.005180100031152102	-0.08060497466690407	0.6023249421890259	0.016828922439204086	-0.07075977616414786	0.5863728310448724	0.010819211251104521	-0.06920622491613487	0.5664507610597936	0.004392541368186009	-0.06758725588443201	0.5331444423741128	-0.009446092538080153	-0.06784181082195789	0.4622830810018608	-0.023011742144276925	-0.051989820119430985
